<?xml version="1.0" standalone="no"?>
<!DOCTYPE svg PUBLIC "-//W3C//DTD SVG 20010904//EN"
 "http://www.w3.org/TR/2001/REC-SVG-20010904/DTD/svg10.dtd">
<svg version="1.0" xmlns="http://www.w3.org/2000/svg"
 width="700.000000pt" height="700.000000pt" viewBox="0 0 700.000000 700.000000"
 preserveAspectRatio="xMidYMid meet">
<metadata>
Created by potrace 1.14, written by Peter Selinger 2001-2017
</metadata>
<g transform="translate(0.000000,700.000000) scale(0.100000,-0.100000)"
fill="#000000" stroke="none">
<path d="M3417 5394 c-1 -1 -45 -5 -97 -9 -52 -3 -97 -8 -100 -10 -3 -2 -26
-6 -50 -10 -89 -12 -243 -56 -358 -101 -641 -251 -1088 -816 -1187 -1499 -23
-160 -24 -411 -1 -530 2 -11 7 -40 11 -65 12 -78 54 -236 85 -320 215 -584
706 -1029 1305 -1183 262 -67 543 -79 802 -33 392 70 730 247 1017 532 392
389 594 952 542 1509 -61 658 -468 1245 -1061 1530 -95 46 -278 114 -348 130
-94 21 -245 46 -307 51 -74 6 -249 11 -253 8z m198 -118 c87 -5 190 -19 300
-41 61 -12 263 -84 341 -121 435 -208 766 -573 923 -1017 26 -74 58 -194 76
-282 28 -142 34 -421 10 -560 -2 -16 -7 -48 -11 -70 -9 -65 -42 -187 -75 -282
-30 -85 -142 -322 -157 -333 -5 -3 -19 -23 -32 -45 -45 -76 -154 -208 -244
-297 -149 -147 -347 -281 -531 -359 -38 -17 -79 -34 -90 -39 -100 -43 -321
-92 -472 -105 -475 -40 -908 97 -1301 411 -57 46 -198 193 -256 267 -205 265
-338 596 -370 924 -61 617 216 1238 714 1604 226 167 522 293 757 325 26 3 51
8 55 10 3 2 57 7 120 10 62 4 115 8 116 10 2 1 9 1 15 -1 7 -2 57 -6 112 -9z"/>
<path d="M2937 4112 c1 -312 2 -575 2 -584 1 -15 11 -18 56 -18 30 0 56 3 56
8 1 4 2 267 3 585 l1 577 -60 0 -60 0 2 -568z"/>
<path d="M4116 4103 c1 -318 2 -581 3 -585 0 -5 26 -8 56 -8 l55 0 0 585 0
585 -58 0 -57 0 1 -577z"/>
<path d="M2536 2709 l-29 -42 24 -18 c67 -53 176 -120 279 -172 499 -252 1065
-211 1549 113 51 34 95 68 98 76 2 7 -7 26 -21 41 -14 15 -26 31 -26 35 0 16
-19 6 -115 -58 -341 -228 -716 -307 -1088 -229 -172 36 -376 124 -534 231 -52
35 -97 64 -101 64 -4 0 -20 -19 -36 -41z"/>
</g>
</svg>
