<?xml version="1.0" encoding="UTF-8" standalone="no"?>
<!-- Created with Inkscape (http://www.inkscape.org/) -->

<svg
   width="250mm"
   height="250mm"
   viewBox="0 0 250 250"
   version="1.1"
   id="svg16770"
   sodipodi:docname="LinkGlobe.svg"
   xmlns:inkscape="http://www.inkscape.org/namespaces/inkscape"
   xmlns:sodipodi="http://sodipodi.sourceforge.net/DTD/sodipodi-0.dtd"
   xmlns="http://www.w3.org/2000/svg"
   xmlns:svg="http://www.w3.org/2000/svg">
  <sodipodi:namedview
     id="namedview16772"
     pagecolor="#ffffff"
     bordercolor="#999999"
     borderopacity="1"
     showgrid="false"
     width="250mm"
     showguides="true" />
  <defs
     id="defs16767">
    <inkscape:path-effect
       effect="spiro"
       id="path-effect19012"
       is_visible="true"
       lpeversion="1" />
    <inkscape:path-effect
       effect="spiro"
       id="path-effect18815"
       is_visible="true"
       lpeversion="1" />
    <inkscape:path-effect
       effect="spiro"
       id="path-effect18811"
       is_visible="true"
       lpeversion="1" />
    <inkscape:path-effect
       effect="spiro"
       id="path-effect18807"
       is_visible="true"
       lpeversion="1" />
    <inkscape:path-effect
       effect="spiro"
       id="path-effect18803"
       is_visible="true"
       lpeversion="1" />
    <inkscape:path-effect
       effect="spiro"
       id="path-effect18799"
       is_visible="true"
       lpeversion="1" />
    <inkscape:path-effect
       effect="spiro"
       id="path-effect18557"
       is_visible="true"
       lpeversion="1" />
    <inkscape:path-effect
       effect="spiro"
       id="path-effect18553"
       is_visible="true"
       lpeversion="1" />
    <inkscape:path-effect
       effect="spiro"
       id="path-effect18549"
       is_visible="true"
       lpeversion="1" />
    <inkscape:path-effect
       effect="spiro"
       id="path-effect18545"
       is_visible="true"
       lpeversion="1" />
  </defs>
  <g

     id="layer1">
    <g
       id="g26743">
      <path
         style="fill:none;stroke:#000000;stroke-width:4;stroke-linecap:butt;stroke-linejoin:miter;stroke-miterlimit:4;stroke-dasharray:none;stroke-opacity:1"
         d="M 125,57.115384 C 110.64747,61.599072 97.797683,70.760574 88.880344,82.867577 79.963004,94.97458 75.024986,109.96345 75,125 c -0.02505,15.07601 4.889656,30.1202 13.810214,42.27382 8.920559,12.15361 21.799596,21.35211 36.189786,25.84757"
         id="path18543"
        />
      <path
         style="fill:none;stroke:#000000;stroke-width:4;stroke-linecap:butt;stroke-linejoin:miter;stroke-miterlimit:4;stroke-dasharray:none;stroke-opacity:1"
         d="M 125,57.115384 C 109.05414,75.871556 100.02776,100.38164 100,125 c -0.02785,24.69729 9.00301,49.30509 25,68.12139"
         id="path18547"
         />
      <path
         style="fill:none;stroke:#000000;stroke-width:4;stroke-linecap:butt;stroke-linejoin:miter;stroke-miterlimit:4;stroke-dasharray:none;stroke-opacity:1"
         d="M 125,57.115384 C 140.94586,75.871556 149.97224,100.38164 150,125 c 0.0279,24.69729 -9.00301,49.30509 -25,68.12139"
         id="path18551"
        />
      <path
         style="fill:none;stroke:#000000;stroke-width:4;stroke-linecap:butt;stroke-linejoin:miter;stroke-miterlimit:4;stroke-dasharray:none;stroke-opacity:1"
         d="m 125,57.115384 c 14.35253,4.483688 27.20232,13.64519 36.11966,25.752193 C 170.037,94.97458 174.97501,109.96345 175,125 c 0.025,15.07601 -4.88966,30.1202 -13.81021,42.27382 -8.92056,12.15361 -21.7996,21.35211 -36.18979,25.84757"
         id="path18555"
         />
      <path
         style="fill:none;stroke:#000000;stroke-width:4;stroke-linecap:butt;stroke-linejoin:miter;stroke-miterlimit:4;stroke-dasharray:none;stroke-opacity:1"
         d="M 125,57.115384 V 193.12139"
         id="path18559"/>
      <path
         style="fill:none;stroke:#000000;stroke-width:4;stroke-linecap:butt;stroke-linejoin:miter;stroke-miterlimit:4;stroke-dasharray:none;stroke-opacity:1"
         d="M 57.472354,125 H 193.12139"
         id="path19010"/>
      <path
         style="fill:none;stroke:#000000;stroke-width:4;stroke-linecap:butt;stroke-linejoin:miter;stroke-miterlimit:4;stroke-dasharray:none;stroke-opacity:1"
         d="M 78.890624,74.999997 H 171.34615"
         id="path23514"/>
      <path
         style="fill:none;stroke:#000000;stroke-width:4;stroke-linecap:butt;stroke-linejoin:miter;stroke-miterlimit:4;stroke-dasharray:none;stroke-opacity:1"
         d="M 61.399038,99.999997 H 188.48077"
         id="path23629" />
      <path
         style="fill:none;stroke:#000000;stroke-width:4;stroke-linecap:butt;stroke-linejoin:miter;stroke-miterlimit:4;stroke-dasharray:none;stroke-opacity:1"
         d="M 61.756009,150 H 188.48077"
         id="path23744"/>
      <path
         style="fill:none;stroke:#000000;stroke-width:4;stroke-linecap:butt;stroke-linejoin:miter;stroke-miterlimit:4;stroke-dasharray:none;stroke-opacity:1"
         d="M 78.890624,175 H 171.70312"
         id="path23859"/>
    </g>
    <circle
       style="fill:none;fill-rule:evenodd;stroke:#000000;stroke-width:4.99999;stroke-linecap:round;stroke-linejoin:round;stroke-opacity:1"
       id="path16954"
       cx="125"
       cy="125"
       r="68.003006" />
    <path
       style="fill:#000000;fill-opacity:1;fill-rule:evenodd;stroke:#000000;stroke-width:3.9402;stroke-linecap:round;stroke-linejoin:round;stroke-miterlimit:4;stroke-dasharray:none"
       id="path17481"
       d="m 28.264567,172.97205 c 8.309178,-8.33423 17.506721,-15.8304 27.311984,-22.36759 5.340799,-3.56072 10.910193,-6.7706 16.365291,-10.1559 18.685426,-9.77575 22.700399,-12.48216 42.832848,-20.41877 15.39741,-6.06997 30.54574,-10.76598 46.53044,-14.99357 15.20066,-4.02022 22.31552,-5.214177 37.1812,-8.159183 4.33035,-0.708665 8.66071,-1.41733 12.99106,-2.125998 0,0 0.44858,-0.335275 0.44858,-0.335275 v 0 c -4.36591,0.734664 -8.73184,1.469329 -13.09776,2.203995 -14.85743,2.993073 -22.18684,4.260901 -37.36127,8.292521 -15.99415,4.24942 -31.14407,8.94373 -46.55797,15.01188 -20.343608,8.00889 -24.288717,10.70269 -43.297772,20.6518 -5.500449,3.40411 -11.114319,6.63359 -16.501351,10.21232 -9.949384,6.60962 -19.276141,14.18483 -27.765567,22.56257 0,0 0.920287,-0.3788 0.920287,-0.3788 z" />
    <path
       style="fill:#000000;fill-opacity:1;fill-rule:evenodd;stroke:#000000;stroke-width:4;stroke-linecap:round;stroke-linejoin:round;stroke-miterlimit:4;stroke-dasharray:none"
       id="path17487"
       d="m 27.865141,173.23862 c 9.757536,-3.77293 19.651572,-7.18045 29.842899,-9.83631 5.871607,-1.53013 11.814415,-2.81548 17.721623,-4.22322 7.441053,-1.37025 14.849295,-2.90328 22.323151,-4.11073 16.932676,-2.73558 33.703176,-4.68171 50.788416,-6.39013 14.50398,-1.45029 30.1229,-2.65644 44.72357,-3.65057 5.55665,-0.37834 11.11877,-0.6844 16.67815,-1.02659 0,0 0.41094,-0.28049 0.41094,-0.28049 v 0 c -20.5749,1.34912 -41.13824,2.78613 -61.64845,4.8444 -17.05324,1.71135 -33.79628,3.63581 -50.704416,6.32945 -7.432892,1.18414 -14.803247,2.68325 -22.204873,4.02488 -5.866318,1.3775 -11.766822,2.6357 -17.598958,4.13251 -10.067782,2.58389 -19.848531,5.89956 -29.496066,9.58077 0,0 -0.835987,0.60603 -0.835986,0.60603 z" />
    <path
       style="fill:#000000;fill-opacity:1;stroke:#000000;stroke-width:4;stroke-linecap:butt;stroke-linejoin:miter;stroke-miterlimit:4;stroke-dasharray:none;stroke-opacity:1"
       d="m 217.10862,94.751039 -7.16567,49.250031"
       id="path26103" />
    <path
       style="fill:#000000;fill-opacity:1;fill-rule:evenodd;stroke:#000000;stroke-width:20.3971;stroke-linecap:round;stroke-linejoin:round;stroke-miterlimit:4;stroke-dasharray:none;stroke-opacity:1"
       d="m 153.13219,623.97565 c 8.46083,-7.73065 34.74709,-27.45735 53.80315,-40.37694 l 17.37523,-11.78001 4.32629,9.89887 c 2.37947,5.44438 5.64113,12.45569 7.24814,15.58069 l 2.92184,5.68181 -5.06022,1.30189 c -30.83577,7.93346 -44.43022,11.72632 -61.05128,17.03337 -26.65515,8.51089 -25.84588,8.40084 -19.56315,2.66032 z"
       id="path26818"
       transform="scale(0.26458333)" />
    <path
       style="fill:#000000;fill-opacity:1;fill-rule:evenodd;stroke:#000000;stroke-width:20.3971;stroke-linecap:round;stroke-linejoin:round;stroke-miterlimit:4;stroke-dasharray:none;stroke-opacity:1"
       d="m 253.97202,587.19516 c -3.14736,-5.90696 -5.72247,-11.12323 -5.72247,-11.59171 0,-0.46848 10.47302,-0.85121 23.27339,-0.8505 l 23.2734,10e-4 2.89694,7.08192 c 1.59332,3.89506 2.78359,7.20711 2.64503,7.36012 -0.2768,0.30568 -30.08862,6.82785 -36.58471,8.00394 -3.90082,0.70623 -4.28224,0.31608 -9.78158,-10.00506 z"
       id="path26857"
       transform="scale(0.26458333)" />
    <path
       style="fill:#000000;fill-opacity:1;fill-rule:evenodd;stroke:#000000;stroke-width:20.3971;stroke-linecap:round;stroke-linejoin:round;stroke-miterlimit:4;stroke-dasharray:none;stroke-opacity:1"
       d="m 248.65441,557.70689 c 0.47002,-0.47002 8.31203,-5.25121 17.42668,-10.62487 l 16.57211,-9.77029 3.00381,10.28758 c 1.6521,5.65817 3.01826,10.43936 3.03591,10.62487 0.0177,0.18551 -9.17607,0.3373 -20.4305,0.3373 -11.25443,0 -20.07804,-0.38457 -19.60801,-0.85459 z"
       id="path26896"
       transform="scale(0.26458333)" />
    <path
       style="fill:#000000;fill-opacity:1;fill-rule:evenodd;stroke:#000000;stroke-width:20.3971;stroke-linecap:round;stroke-linejoin:round;stroke-miterlimit:4;stroke-dasharray:none;stroke-opacity:1"
       d="m 303.10568,548.10531 c -1.80186,-5.75088 -3.66986,-12.30163 -4.15111,-14.5572 l -0.87501,-4.10105 33.43713,-17.00919 c 18.39042,-9.35505 34.80317,-17.41639 36.47279,-17.91408 2.8649,-0.854 3.03566,-0.52422 3.03566,5.86283 0,10.41895 4.88351,46.26262 7.60433,55.81379 0.6287,2.20698 -1.70683,2.36107 -35.78755,2.36107 h -36.46014 z"
       id="path26935"
       transform="scale(0.26458333)" />
    <path
       style="fill:#000000;fill-opacity:1;fill-rule:evenodd;stroke:#000000;stroke-width:20.3971;stroke-linecap:round;stroke-linejoin:round;stroke-miterlimit:4;stroke-dasharray:none;stroke-opacity:1"
       d="m 315.28396,580.77721 c -1.25052,-2.62235 -2.27366,-5.05088 -2.27366,-5.39673 0,-0.34585 15.33008,-0.57274 34.06685,-0.5042 l 34.06685,0.12462 -29.68201,5.23732 c -16.3251,2.88053 -30.63204,5.25299 -31.79319,5.27212 -1.16115,0.0191 -3.13433,-2.11078 -4.38484,-4.73313 z"
       id="path26974"
       transform="scale(0.26458333)" />
    <path
       style="fill:#000000;fill-opacity:1;fill-rule:evenodd;stroke:#000000;stroke-width:20.3971;stroke-linecap:round;stroke-linejoin:round;stroke-miterlimit:4;stroke-dasharray:none;stroke-opacity:1"
       d="m 392.8791,542.70859 c -2.83116,-15.45197 -4.87128,-31.60445 -6.11923,-48.44846 l -0.6157,-8.31028 6.78681,-2.82047 c 6.23901,-2.59282 9.38591,-2.82048 38.98728,-2.82048 h 32.20046 v 39.12629 39.12629 h -34.1675 -34.1675 z"
       id="path27013"
       transform="scale(0.26458333)" />
    <path
       style="fill:#000000;fill-opacity:1;fill-rule:evenodd;stroke:#000000;stroke-width:20.3971;stroke-linecap:round;stroke-linejoin:round;stroke-miterlimit:4;stroke-dasharray:none;stroke-opacity:1"
       d="M 480.3089,519.43519 V 480.3089 h 39.12629 39.12629 l -10e-4,5.05944 c -0.003,12.29264 -6.85753,66.91753 -8.62973,68.76911 -1.11778,1.16786 -40.53911,4.42403 -53.56021,4.42403 H 480.3089 Z"
       id="path27052"
       transform="scale(0.26458333)" />
    <path
       style="fill:#000000;fill-opacity:1;fill-rule:evenodd;stroke:#000000;stroke-width:20.3971;stroke-linecap:round;stroke-linejoin:round;stroke-miterlimit:4;stroke-dasharray:none;stroke-opacity:1"
       d="m 480.57887,456.41174 0.40462,-7.70697 33.72956,-10.99863 c 45.00256,-14.67455 40.64111,-14.01534 41.60059,-6.28775 0.43646,3.5152 1.20396,12.31081 1.70555,19.5458 l 0.91199,13.15453 h -39.37847 -39.37847 z"
       id="path27091"
       transform="scale(0.26458333)" />
    <path
       style="fill:#000000;fill-opacity:1;fill-rule:evenodd;stroke:#000000;stroke-width:20.3971;stroke-linecap:round;stroke-linejoin:round;stroke-miterlimit:4;stroke-dasharray:none;stroke-opacity:1"
       d="m 442.5318,463.14318 c 1.11307,-0.41937 6.42548,-2.44329 11.80534,-4.49759 l 9.78158,-3.73509 v 4.60411 4.60411 l -11.80535,-0.10652 c -6.49294,-0.0586 -10.89465,-0.44964 -9.78157,-0.86902 z"
       id="path27130"
       transform="scale(0.26458333)" />
    <path
       style="fill:#000000;fill-opacity:1;fill-rule:evenodd;stroke:#000000;stroke-width:20.3971;stroke-linecap:round;stroke-linejoin:round;stroke-miterlimit:4;stroke-dasharray:none;stroke-opacity:1"
       d="m 574.30616,450.2896 c -0.47056,-7.60602 -1.24589,-17.52273 -1.72296,-22.03715 l -0.8674,-8.20802 13.32328,-3.73264 c 7.3278,-2.05295 23.4085,-6.32662 35.73488,-9.49704 l 22.4116,-5.7644 2.98962,12.98293 c 3.0957,13.44357 6.75669,38.03807 6.80272,45.70059 l 0.0263,4.38485 h -38.92126 -38.92125 z"
       id="path27169"
       transform="scale(0.26458333)" />
    <path
       style="fill:#000000;fill-opacity:1;fill-rule:evenodd;stroke:#000000;stroke-width:20.3971;stroke-linecap:round;stroke-linejoin:round;stroke-miterlimit:4;stroke-dasharray:none;stroke-opacity:1"
       d="m 567.18759,551.0286 c 2.33745,-6.09129 7.56408,-49.92857 7.56408,-63.44215 v -7.27755 h 39.12628 39.12629 v 4.65304 c 0,8.16054 -3.93881,34.71205 -7.11542,47.96507 l -3.07216,12.81724 -31.67143,2.90678 c -17.41928,1.59873 -34.61185,3.24644 -38.20571,3.66157 -5.46434,0.63119 -6.40618,0.42095 -5.75193,-1.284 z"
       id="path27208"
       transform="scale(0.26458333)" />
    <path
       style="fill:#000000;fill-opacity:1;fill-rule:evenodd;stroke:#000000;stroke-width:20.3971;stroke-linecap:round;stroke-linejoin:round;stroke-miterlimit:4;stroke-dasharray:none;stroke-opacity:1"
       d="m 661.21677,540.68704 c 2.63139,-9.02208 6.6852,-34.4668 7.51954,-47.19816 l 0.86373,-13.17998 h 24.75707 24.75706 v 3.97845 c 0,11.24931 -7.33342,53.74671 -9.67373,56.05953 -0.24482,0.24195 -10.15925,1.12419 -22.03205,1.96054 -11.87281,0.83635 -22.91087,1.801 -24.52904,2.14366 -2.73699,0.57959 -2.85291,0.31717 -1.66258,-3.76404 z"
       id="path27247"
       transform="scale(0.26458333)" />
    <path
       style="fill:#000000;fill-opacity:1;fill-rule:evenodd;stroke:#000000;stroke-width:20.3971;stroke-linecap:round;stroke-linejoin:round;stroke-miterlimit:4;stroke-dasharray:none;stroke-opacity:1"
       d="m 668.71534,451.63878 c -0.95471,-13.58021 -3.58826,-30.18958 -7.0696,-44.58689 -1.21966,-5.04398 -1.96501,-9.42342 -1.65633,-9.7321 0.30868,-0.30868 9.03276,-2.4165 19.38684,-4.68404 10.35408,-2.26755 20.16183,-4.41886 21.795,-4.7807 2.69595,-0.59729 3.33573,0.49227 6.94716,11.83113 5.65134,17.74366 10.99576,47.24012 10.99576,60.68689 v 3.74565 h -24.76073 -24.76073 z"
       id="path27286"
       transform="scale(0.26458333)" />
    <path
       style="fill:#000000;fill-opacity:1;fill-rule:evenodd;stroke:#000000;stroke-width:20.3971;stroke-linecap:round;stroke-linejoin:round;stroke-miterlimit:4;stroke-dasharray:none;stroke-opacity:1"
       d="m 731.25681,539.28841 c 0,-0.22903 1.175,-5.85217 2.6111,-12.49589 9.12741,-42.22526 6.35556,-97.00164 -6.85234,-135.41372 -1.38141,-4.01752 -2.29001,-7.52623 -2.01911,-7.79713 1.43908,-1.43907 84.24825,-15.9693 85.2577,-14.95986 0.416,0.416 -23.49991,165.92316 -24.05645,166.47969 -0.17324,0.17324 -10.32907,0.97598 -22.5685,1.78387 -12.23944,0.80787 -24.53027,1.77275 -27.31296,2.14416 -2.78269,0.3714 -5.05944,0.4879 -5.05944,0.25888 z"
       id="path27325"
       transform="scale(0.26458333)" />
    <path
       style="fill:#000000;fill-opacity:1;fill-rule:evenodd;stroke:#000000;stroke-width:20.3971;stroke-linecap:round;stroke-linejoin:round;stroke-miterlimit:4;stroke-dasharray:none;stroke-opacity:1"
       d="m 692.46782,558.9443 c 2.04064,-0.30913 5.37987,-0.30913 7.42051,0 2.04063,0.30913 0.37102,0.56206 -3.71026,0.56206 -4.08127,0 -5.75089,-0.25293 -3.71025,-0.56206 z"
       id="path27364"
       transform="scale(0.26458333)" />
    <path
       style="fill:#000000;fill-opacity:1;fill-rule:evenodd;stroke:#000000;stroke-width:4;stroke-linecap:round;stroke-linejoin:round;stroke-miterlimit:4;stroke-dasharray:none;stroke-opacity:1"
       id="path27596"
       d="m 73.549012,147.39978 c -0.311756,0.29344 -0.567325,0.64532 -0.79411,1.00767 -0.03692,0.10638 -0.218014,0.2969 -0.153548,0.43013 0.07648,0.15807 0.25691,0.0412 0.353263,-0.006 0.109247,-0.077 1.301443,-0.69053 1.478458,-1.0687 -0.04244,-0.0267 -0.07719,-0.0787 -0.127315,-0.0801 -0.02674,-8e-4 -0.365353,0.19263 -0.371491,0.19618 -0.570431,0.33049 -1.123866,0.6441 -1.665372,1.01089 -0.104392,0.10069 -0.2447,0.15237 -0.356553,0.2427 -0.0075,0.006 -0.0199,0.0308 -0.01101,0.027 0.345766,-0.15114 0.695151,-0.29605 1.028999,-0.47196 0.07774,-0.041 0.132054,-0.11594 0.197671,-0.17438 0.08481,-0.0755 0.169068,-0.15168 0.253603,-0.22752 0.263853,-0.23697 0.507137,-0.49676 0.727996,-0.77422 0.09674,-0.12153 0.223546,-0.27246 0.261336,-0.43228 0.01183,-0.05 -0.0043,-0.10266 -0.0064,-0.15399 -0.03871,-0.0305 -0.0685,-0.0788 -0.116123,-0.0914 -0.05777,-0.0152 -0.125363,-0.0134 -0.178737,0.0135 -0.961938,0.48395 -1.151041,0.55975 -1.587823,1.37478 -0.04021,0.1 -0.0913,0.19626 -0.120639,0.29996 -0.09579,0.33856 -0.0278,0.74599 0.325054,0.90876 0.07599,0.0351 0.163105,0.0375 0.24466,0.0562 0.223673,-0.0277 0.287382,-0.0125 0.488918,-0.13339 0.645033,-0.3869 1.073272,-0.49489 1.305877,-1.13847 0.03041,-0.0841 0.04339,-0.17359 0.06508,-0.26039 -0.0016,-0.0857 0.0066,-0.17214 -0.0046,-0.25715 -0.03255,-0.24874 -0.188582,-0.59336 -0.472953,-0.63553 -0.05219,-0.008 -0.104842,0.012 -0.157261,0.0181 -0.315888,0.20397 -0.662728,0.36655 -0.947666,0.6119 -0.05968,0.0514 -0.03204,0.15503 -0.03441,0.23374 -0.01318,0.43654 0.169265,0.81603 0.381101,1.1834 0,0 0.829612,-0.47937 0.829612,-0.47937 v 0 c -0.161259,-0.27434 -0.29899,-0.53703 -0.335508,-0.85977 -0.0099,-0.088 -0.01241,-0.17789 -7.94e-4,-0.26569 0.0088,-0.0666 0.12623,-0.20887 0.06125,-0.19192 -0.263364,0.0687 -0.486505,0.2442 -0.729755,0.3663 0.04164,-0.0216 0.07848,-0.0581 0.12491,-0.0649 0.259701,-0.0381 0.40015,0.33011 0.419877,0.52272 0.0079,0.0774 -0.0033,0.15556 -0.0049,0.23333 -0.06768,0.22897 -0.06313,0.27393 -0.199089,0.47974 -0.04919,0.0745 -0.254725,0.22762 -0.167497,0.20882 0.225788,-0.0487 0.411972,-0.20919 0.621372,-0.30666 0.07699,-0.0358 -0.14495,0.0903 -0.22388,0.12162 -0.07255,0.0288 -0.151347,0.0383 -0.227021,0.0575 -0.07339,-0.007 -0.15031,0.002 -0.22016,-0.0211 -0.477083,-0.1611 -0.315423,-0.75775 -0.148637,-1.07806 0.132858,-0.23055 0.175588,-0.33352 0.355994,-0.53183 0.06697,-0.0736 0.313531,-0.23456 0.219252,-0.20267 -0.228811,0.0774 -0.426542,0.22687 -0.637672,0.34421 -0.04297,0.0239 0.08661,-0.0475 0.133011,-0.0637 0.02037,-0.007 0.04303,-0.004 0.06454,-0.005 -0.0011,0.0365 0.0081,0.0747 -0.003,0.10941 -0.04641,0.14457 -0.165335,0.2899 -0.256117,0.4022 -0.221689,0.27423 -0.468275,0.52779 -0.732313,0.76132 -0.08781,0.0766 -0.174829,0.15414 -0.263443,0.22983 -0.07056,0.0603 -0.305287,0.19481 -0.214038,0.17798 0.547188,-0.10094 0.754642,-0.24089 1.13746,-0.5115 0.242956,-0.1617 1.25675,-0.75985 0.02384,-0.0552 -0.07,0.04 0.140496,-0.0791 0.210831,-0.11856 0.04413,-0.0247 0.104965,-0.0315 0.132569,-0.0739 0.02326,-0.0357 -7.94e-4,-0.0852 -0.0013,-0.1278 -0.253241,0.30382 -1.20211,0.87349 0.19276,0.0509 -0.09198,0.0558 -0.132475,0.0728 -0.206537,0.14102 -0.01085,0.01 -0.02029,0.0475 -0.02748,0.0346 -0.03777,-0.0676 0.138954,-0.32648 0.159557,-0.37547 0.231857,-0.3603 0.492948,-0.7105 0.823201,-0.98692 0,0 -0.916906,0.37009 -0.916906,0.37009 z" />
    <path
       style="fill:#000000;fill-opacity:1;fill-rule:evenodd;stroke:#000000;stroke-width:4;stroke-linecap:round;stroke-linejoin:round;stroke-miterlimit:4;stroke-dasharray:none;stroke-opacity:1"
       id="path27598"
       d="m 60.000064,150.89997 c -0.438028,0.11675 -0.875104,0.24714 -1.292809,0.42432 -0.612849,0.31265 -1.295421,0.58244 -1.449335,1.30111 0,0 0.887302,-0.42552 0.887302,-0.42552 v 0 c 0.03837,-0.13627 0.09092,-0.25693 0.176551,-0.37181 0.209558,-0.28113 0.847643,-0.62455 -0.373941,0.0982 0.404262,-0.18902 0.836668,-0.31355 1.266804,-0.42896 0,0 0.785428,-0.59732 0.785428,-0.59732 z" />
    <path
       style="fill:#000000;fill-opacity:1;fill-rule:evenodd;stroke:#000000;stroke-width:4;stroke-linecap:round;stroke-linejoin:round;stroke-miterlimit:4;stroke-dasharray:none;stroke-opacity:1"
       id="path27670"
       d="m 58.597244,155.19413 c 0.731221,-0.88936 1.744734,-1.50068 2.709063,-2.10227 1.620517,-0.94974 3.358684,-1.67681 5.136401,-2.27336 0.670293,-0.22519 0.351835,-1.17312 -0.318458,-0.94794 v 0 c -1.851485,0.62267 -3.661714,1.38087 -5.348139,2.37343 -0.309748,0.19412 -0.625573,0.37887 -0.929243,0.58238 -0.446979,0.29954 -0.939739,0.67518 -1.347822,1.03391 -0.242721,0.21337 -0.493649,0.45411 -0.684353,0.71987 -0.05918,0.0825 -0.102518,0.17523 -0.153778,0.26285 -0.248282,0.66209 0.688046,1.01321 0.936329,0.35113 z" />
    <path
       style="fill:#000000;fill-opacity:1;fill-rule:evenodd;stroke:#000000;stroke-width:4;stroke-linecap:round;stroke-linejoin:round;stroke-miterlimit:4;stroke-dasharray:none;stroke-opacity:1"
       id="path27672"
       d="m 64.129247,149.81202 c -1.159708,0.1924 -2.312752,0.41907 -3.456236,0.69182 -0.932521,0.24082 -1.88659,0.48444 -2.720181,0.98603 -0.138396,0.0833 -0.267274,0.18142 -0.40091,0.27214 -0.334923,0.25211 -0.591661,0.57415 -0.839975,0.90635 -0.420148,0.56875 0.384185,1.16293 0.804333,0.59418 v 0 c 0.178575,-0.2456 0.363413,-0.48497 0.60249,-0.67671 0.102156,-0.0715 0.200131,-0.14943 0.306465,-0.21458 0.756227,-0.46336 1.632392,-0.67155 2.48,-0.89475 1.116883,-0.26691 2.243339,-0.4876 3.37607,-0.67611 0.698886,-0.10752 0.546828,-1.09589 -0.152056,-0.98837 z" />
    <path
       style="fill:#000000;fill-opacity:1;fill-rule:evenodd;stroke:#000000;stroke-width:4;stroke-linecap:round;stroke-linejoin:round;stroke-miterlimit:4;stroke-dasharray:none;stroke-opacity:1"
       id="path27676"
       d="m 184.96901,145.22919 c -0.54139,0.50852 -1.22464,0.75767 -1.91776,0.98391 -1.52566,0.40498 -3.11657,0.39468 -4.68086,0.32338 -1.25224,-0.0739 -2.48464,-0.3105 -3.71259,-0.55268 -0.69376,-0.13674 -0.88714,0.84438 -0.19338,0.98113 v 0 c 1.27698,0.25155 2.55887,0.49539 3.86115,0.57054 0.35741,0.0158 0.71453,0.0409 1.07223,0.0474 1.32926,0.0242 2.67793,-0.0804 3.96585,-0.4198 0.81529,-0.26988 1.61671,-0.57959 2.25615,-1.1746 0.53688,-0.46018 -0.11392,-1.21944 -0.65079,-0.75926 z" />
    <path
       sodipodi:type="star"
       style="fill:#000000;fill-opacity:1;fill-rule:evenodd;stroke:#000000;stroke-width:15.1181;stroke-linecap:round;stroke-linejoin:round;stroke-miterlimit:4;stroke-dasharray:none;stroke-opacity:1"
       id="path27829"
       sodipodi:sides="3"
       sodipodi:cx="730.77625"
       sodipodi:cy="165.04475"
       sodipodi:r1="121.61365"
       sodipodi:r2="60.806824"
       sodipodi:arg1="0.52359878"
       sodipodi:arg2="1.5707963"
       d="m 836.09675,225.85158 -210.64101,0 105.32051,-182.420473 z"
       transform="matrix(0,0.30578939,-0.16505806,0,248.92493,-104.03707)" />
    <path
       style="fill:#000000;fill-opacity:1;fill-rule:evenodd;stroke:#000000;stroke-width:4;stroke-linecap:round;stroke-linejoin:round;stroke-miterlimit:4;stroke-dasharray:none;stroke-opacity:1"
       id="path27947"
       d="m 113.48818,124.82728 c 0.0432,-0.28076 0.14184,-0.54472 0.26502,-0.79867 0.13531,-0.20678 0.29069,-0.39957 0.4819,-0.55688 0.24027,-0.22251 0.49944,-0.42113 0.70651,-0.67593 0.0326,-0.14051 0.11659,-0.2785 0.0979,-0.42152 -0.0761,-0.58092 -0.7737,-0.77999 -1.23614,-0.92158 -0.38209,-0.11024 -0.79098,-0.1432 -1.11566,0.13261 -0.0645,0.0548 -0.11312,0.12586 -0.16968,0.1888 -0.18074,0.29037 -0.33864,0.63601 -0.15528,0.97898 0.15817,0.29586 0.34717,0.31072 0.62311,0.41044 0.50398,0.0612 1.02679,0.0184 1.52261,-0.0914 -0.0446,-0.33362 -0.008,-0.68849 -0.13377,-1.00087 -0.0346,-0.0863 -0.18499,-0.0191 -0.27778,-0.0248 -0.49116,-0.0297 -0.98639,-0.0213 -1.47786,-0.009 -0.45635,0.0368 -0.95636,0.0558 -1.37338,0.27254 -0.28514,0.14818 -0.31026,0.21135 -0.52579,0.43777 -0.25222,0.32961 -0.34796,0.7154 -0.42027,1.11449 -0.12145,0.69659 0.86369,0.86835 0.98514,0.17176 v 0 c 0.0354,-0.21526 0.0724,-0.43106 0.18345,-0.62291 0.036,-0.0498 0.0911,-0.13805 0.1476,-0.17213 0.29925,-0.18039 0.6962,-0.16425 1.02797,-0.20182 0.45988,-0.0117 0.91927,-0.0102 1.37905,0.007 0.0503,0.002 0.13764,0.0556 0.15078,0.007 0.0834,-0.30814 0.0699,-0.6346 0.10481,-0.9519 -0.32982,0.0915 -0.69003,0.0832 -1.02879,0.1 -0.01,0.007 -0.0308,0.01 -0.0286,0.0215 0.0691,0.37161 0.0781,-0.17214 0.045,0.32344 -0.001,0.0207 -0.013,-0.008 0.0172,-0.10163 0.005,-0.0159 0.0122,-0.0311 0.0183,-0.0467 -0.0211,-0.0336 -0.0797,0.004 -0.0956,-0.0232 -0.008,-0.0145 0.0329,-0.009 0.0497,-0.009 0.0989,5.3e-4 0.15857,0.0225 0.259,0.0463 0.15843,0.0468 0.18981,0.0524 0.34545,0.1136 0.049,0.0193 0.0957,0.0443 0.14509,0.0625 0.0188,0.007 0.0548,0.0324 0.0586,0.0128 0.10678,-0.55741 -0.22094,0.20613 0.0804,-0.40643 -0.0688,0.14968 -0.43804,0.36823 -0.55787,0.51831 -0.29105,0.25307 -0.54362,0.54576 -0.73359,0.88312 -0.16925,0.35215 -0.30066,0.72065 -0.35668,1.10925 -0.0877,0.70164 0.90457,0.82568 0.99228,0.12403 z" />
  </g>
</svg>
