<svg width="296" height="67" viewBox="0 0 296 67" fill="none" xmlns="http://www.w3.org/2000/svg">
<rect width="296" height="67"/>
<path d="M28.784 54.544C28.784 62.1813 24.688 66 16.496 66H0.816V26.256H16.176C20.2293 26.256 23.2373 27.088 25.2 28.752C27.1627 30.3733 28.144 32.976 28.144 36.56C28.144 40.144 26.672 42.8747 23.728 44.752V45.136C27.0987 46.4587 28.784 49.5947 28.784 54.544ZM13.936 58.896C15.216 58.896 16.0693 58.6187 16.496 58.064C16.9653 57.4667 17.2 56.272 17.2 54.48C17.2 52.6453 16.9653 51.3653 16.496 50.64C16.0267 49.872 15.1733 49.488 13.936 49.488H11.888V58.896H13.936ZM14 43.28C14.9813 43.28 15.664 42.9813 16.048 42.384C16.432 41.7867 16.624 40.7413 16.624 39.248C16.624 37.712 16.4107 36.6453 15.984 36.048C15.6 35.408 14.9173 35.088 13.936 35.088H11.888V43.28H14ZM44.0235 66H33.1435V26.256H44.0235V66ZM74.252 38.096C70.156 36.8587 67.148 36.24 65.228 36.24C63.3507 36.24 62.0493 37.072 61.324 38.736C60.6413 40.4 60.3 43.0453 60.3 46.672C60.3 50.256 60.62 52.88 61.26 54.544C61.9427 56.1653 63.308 56.976 65.356 56.976C65.9533 56.976 67.1053 56.8053 68.812 56.464V51.6H65.932V44.048H78.156V66H70.604L69.58 63.952H69.324C68.5987 64.5493 68.0227 64.9973 67.596 65.296C66.4013 66.192 64.716 66.64 62.54 66.64C53.6227 66.64 49.164 59.8987 49.164 46.416C49.164 39.6747 50.3373 34.5333 52.684 30.992C55.0307 27.408 58.9773 25.616 64.524 25.616C68.9613 25.616 72.78 26.2987 75.98 27.664L74.252 38.096ZM108.461 66H97.581V26.256H108.461V66ZM153.218 66H143.17V45.264H142.594L138.818 66H128.514L124.93 45.264H124.29V66H114.37L115.714 26.256H130.114L133.698 47.76H134.21L137.666 26.256H151.874L153.218 66ZM172.137 53.008H169.193V66H158.441V26.256H171.433C175.998 26.256 179.39 27.3013 181.609 29.392C183.828 31.4827 184.937 34.9173 184.937 39.696C184.937 44.4747 183.892 47.888 181.801 49.936C179.71 51.984 176.489 53.008 172.137 53.008ZM173.353 44.368C173.737 43.6427 173.929 42.3413 173.929 40.464C173.929 38.5867 173.716 37.264 173.289 36.496C172.862 35.728 172.009 35.344 170.729 35.344H169.193V45.456H170.985C172.18 45.456 172.969 45.0933 173.353 44.368ZM216.673 66H205.985L204.769 59.728H197.217L196.001 66H185.825L193.121 26.256H209.377L216.673 66ZM203.553 52.24L201.312 38.032H200.865L198.625 52.24H203.553ZM229.86 46.544C229.86 50.2987 230.222 52.9867 230.948 54.608C231.716 56.1867 232.953 56.976 234.66 56.976C236.366 56.976 238.777 56.5707 241.892 55.76L243.556 64.784C240.185 66.0213 236.793 66.64 233.38 66.64C228.26 66.64 224.526 64.9547 222.18 61.584C219.876 58.1707 218.724 53.1147 218.724 46.416C218.724 39.6747 219.94 34.5333 222.372 30.992C224.804 27.408 228.772 25.616 234.276 25.616C237.518 25.616 240.612 26.2987 243.556 27.664L241.828 37.584C238.5 36.4747 236.174 35.92 234.852 35.92C232.974 35.92 231.673 36.752 230.948 38.416C230.222 40.0373 229.86 42.7467 229.86 46.544ZM269.358 35.92H261.934V66H250.99V35.92H243.117L243.758 26.256H269.998L269.358 35.92ZM270.712 38.224C270.712 34.4267 271.821 31.376 274.04 29.072C276.258 26.768 279.288 25.616 283.128 25.616C287.01 25.616 290.978 26 295.032 26.768L293.752 37.008C289.528 36.0267 286.626 35.536 285.048 35.536C283.042 35.536 282.04 36.3467 282.04 37.968C282.04 38.608 282.509 39.2267 283.448 39.824C284.429 40.4213 285.602 41.0613 286.968 41.744C288.333 42.384 289.698 43.1733 291.064 44.112C292.429 45.008 293.581 46.3093 294.52 48.016C295.501 49.7227 295.992 51.6853 295.992 53.904C295.992 57.9573 294.904 61.0933 292.728 63.312C290.552 65.5307 287.458 66.64 283.448 66.64C279.48 66.64 275.597 66.0213 271.799 64.784L272.504 55.248C277.069 56.5707 280.248 57.232 282.04 57.232C283.832 57.232 284.728 56.4427 284.728 54.864C284.728 54.0533 284.237 53.3067 283.256 52.624C282.317 51.9413 281.165 51.2587 279.8 50.576C278.434 49.8933 277.048 49.104 275.64 48.208C274.274 47.312 273.101 46.0107 272.12 44.304C271.181 42.5973 270.712 40.5707 270.712 38.224Z" fill="white"/>
<path d="M84.1343 13.864C84.1343 15.176 83.5423 16.28 82.3583 17.176C81.1743 18.056 79.8143 18.496 78.2783 18.496C76.7583 18.496 75.5023 18.104 74.5103 17.32C73.5183 16.52 73.0223 15.768 73.0223 15.064C73.0223 14.584 73.1663 14.344 73.4543 14.344C73.7103 14.344 74.2143 14.728 74.9663 15.496C75.2543 15.768 75.6383 16.024 76.1183 16.264C76.6143 16.504 77.1343 16.624 77.6783 16.624C78.7983 16.624 79.7903 16.336 80.6543 15.76C81.5343 15.184 81.9743 14.56 81.9743 13.888C81.9743 13.456 81.6863 12.904 81.1103 12.232C80.5343 11.56 79.8943 10.928 79.1903 10.336C78.5023 9.728 77.8703 9.08 77.2943 8.392C76.7183 7.704 76.4303 7.16 76.4303 6.76C76.4303 6.36 76.5103 5.936 76.6703 5.488C76.8303 5.04 77.0063 4.712 77.1983 4.504C77.8223 3.816 78.7903 3.184 80.1023 2.608C81.4303 2.032 82.5423 1.744 83.4383 1.744C83.9023 1.744 84.2943 1.896 84.6143 2.2C84.9343 2.504 85.0943 2.824 85.0943 3.16C85.0943 3.32 84.9263 3.448 84.5903 3.544C84.2543 3.64 83.7423 3.768 83.0543 3.928C82.3823 4.072 81.7823 4.248 81.2543 4.456C79.4143 5.16 78.4943 5.84 78.4943 6.496C78.4943 6.848 79.4303 7.832 81.3023 9.448C82.0223 10.072 82.6703 10.8 83.2463 11.632C83.8383 12.448 84.1343 13.192 84.1343 13.864ZM101.924 6.736C102.404 6.736 102.828 7.072 103.196 7.744C103.58 8.4 103.772 9.152 103.772 10C103.772 10.832 103.62 11.92 103.316 13.264C103.028 14.608 102.636 15.84 102.14 16.96C101.644 18.08 101.156 18.64 100.676 18.64C100.34 18.64 100.172 18.424 100.172 17.992C100.172 17.544 100.444 16.464 100.988 14.752C101.548 13.024 101.828 11.656 101.828 10.648C101.828 9.624 101.668 9.112 101.348 9.112C100.948 9.112 100.484 9.464 99.9563 10.168C99.4443 10.872 98.8923 11.72 98.3003 12.712C97.7083 13.704 97.3883 14.24 97.3403 14.32C97.2923 14.384 97.2283 14.48 97.1483 14.608C97.0843 14.736 97.0043 14.872 96.9083 15.016C96.8283 15.16 96.6043 15.592 96.2363 16.312C95.8843 17.032 95.5723 17.6 95.3003 18.016C95.0283 18.416 94.7883 18.616 94.5803 18.616C94.3883 18.616 94.1723 18.488 93.9323 18.232C93.6923 17.976 93.5723 17.736 93.5723 17.512C93.5723 17.288 93.7163 16.824 94.0043 16.12C94.8363 14.04 95.2523 12.104 95.2523 10.312C95.2523 9.976 95.1803 9.696 95.0363 9.472C94.8923 9.232 94.7323 9.112 94.5563 9.112C94.3803 9.112 94.1963 9.192 94.0043 9.352C93.8123 9.496 93.5723 9.768 93.2843 10.168C92.9963 10.552 92.7403 10.92 92.5163 11.272C92.2923 11.624 91.9483 12.176 91.4843 12.928C91.0363 13.664 90.6923 14.216 90.4523 14.584C90.2283 14.936 89.9643 15.352 89.6603 15.832C89.3563 16.296 89.1163 16.656 88.9403 16.912C88.7803 17.168 88.5963 17.448 88.3883 17.752C87.9563 18.344 87.6363 18.64 87.4283 18.64C87.2363 18.64 86.9803 18.464 86.6603 18.112C86.3403 17.744 86.1803 17.472 86.1803 17.296C86.1803 17.104 86.2123 16.872 86.2763 16.6C86.3403 16.328 86.4043 16.064 86.4683 15.808C86.5483 15.552 86.6603 15.176 86.8043 14.68C86.9643 14.168 87.1403 13.576 87.3323 12.904C87.5403 12.216 87.6923 11.28 87.7883 10.096C87.9003 8.896 87.9803 8.024 88.0283 7.48C88.0763 6.92 88.2123 6.64 88.4363 6.64C88.7883 6.64 89.1323 6.824 89.4683 7.192C89.8203 7.56 89.9963 7.928 89.9963 8.296C89.9963 9.704 89.4683 12.024 88.4123 15.256C90.2043 11.896 91.3323 9.904 91.7963 9.28C92.2603 8.656 92.6603 8.152 92.9963 7.768C93.6203 7.08 94.2523 6.736 94.8923 6.736C95.2763 6.736 95.7323 7.072 96.2603 7.744C96.8043 8.4 97.0763 9.064 97.0763 9.736C97.0763 10.408 96.9803 11.24 96.7883 12.232C98.6763 8.568 100.388 6.736 101.924 6.736ZM111.882 6.736C112.602 6.736 113.266 7.104 113.874 7.84C114.482 8.56 114.786 9.216 114.786 9.808C114.786 10.384 114.586 10.976 114.186 11.584C114.378 11.824 114.474 12.032 114.474 12.208C114.474 12.656 114.37 13.424 114.162 14.512C113.97 15.6 113.85 16.312 113.802 16.648C113.77 16.984 113.738 17.256 113.706 17.464C113.674 17.656 113.634 17.848 113.586 18.04C113.522 18.44 113.378 18.64 113.154 18.64C112.866 18.64 112.626 18.392 112.434 17.896C112.258 17.384 112.154 16.728 112.122 15.928C110.698 17.736 109.378 18.64 108.162 18.64C107.426 18.64 106.698 18.328 105.978 17.704C105.274 17.064 104.922 16.408 104.922 15.736C104.922 14.776 105.274 13.592 105.978 12.184C106.682 10.76 107.594 9.496 108.714 8.392C109.834 7.288 110.89 6.736 111.882 6.736ZM112.986 10.96C112.986 9.472 112.69 8.728 112.098 8.728C111.474 8.728 110.746 9.176 109.914 10.072C109.082 10.952 108.378 11.952 107.802 13.072C107.226 14.192 106.938 15.08 106.938 15.736C106.938 16.008 107.05 16.232 107.274 16.408C107.498 16.568 107.762 16.648 108.066 16.648C108.818 16.648 109.666 16.144 110.61 15.136C111.554 14.112 112.21 12.872 112.578 11.416C112.626 11.176 112.762 11.032 112.986 10.984V10.96ZM121.476 2.032C121.476 5.04 120.852 8.944 119.604 13.744C118.804 17.008 118.244 18.64 117.924 18.64C117.7 18.64 117.436 18.464 117.132 18.112C116.844 17.76 116.7 17.488 116.7 17.296C116.7 17.104 116.932 16.112 117.396 14.32C117.86 12.528 118.324 10.328 118.788 7.72C119.252 5.096 119.484 2.736 119.484 0.639999C119.484 0.415999 119.516 0.255999 119.58 0.159999C119.644 0.0639997 119.78 0.0159998 119.988 0.0159998C120.196 0.0159998 120.492 0.248 120.876 0.711999C121.276 1.16 121.476 1.6 121.476 2.032ZM127.359 2.032C127.359 5.04 126.735 8.944 125.487 13.744C124.687 17.008 124.127 18.64 123.807 18.64C123.583 18.64 123.319 18.464 123.015 18.112C122.727 17.76 122.583 17.488 122.583 17.296C122.583 17.104 122.815 16.112 123.279 14.32C123.743 12.528 124.207 10.328 124.671 7.72C125.135 5.096 125.367 2.736 125.367 0.639999C125.367 0.415999 125.399 0.255999 125.463 0.159999C125.527 0.0639997 125.663 0.0159998 125.871 0.0159998C126.079 0.0159998 126.375 0.248 126.759 0.711999C127.159 1.16 127.359 1.6 127.359 2.032ZM148.682 1.768C149.098 1.768 149.522 2.032 149.954 2.56C150.402 3.088 150.626 3.528 150.626 3.88C150.626 4.216 150.562 4.384 150.434 4.384C150.322 4.384 150.098 4.328 149.762 4.216C149.426 4.088 149.122 4.024 148.85 4.024C148.226 4.024 147.466 4.344 146.57 4.984C145.69 5.624 144.85 6.416 144.05 7.36C143.266 8.304 142.594 9.384 142.034 10.6C141.474 11.8 141.194 12.84 141.194 13.72C141.194 14.6 141.418 15.248 141.866 15.664C142.33 16.064 142.93 16.264 143.666 16.264C144.402 16.264 145.162 16.16 145.946 15.952C146.73 15.728 147.37 15.48 147.866 15.208C149.146 14.52 149.85 14.176 149.978 14.176C150.25 14.176 150.386 14.36 150.386 14.728C150.386 15.08 150.018 15.56 149.282 16.168C148.546 16.76 147.634 17.296 146.546 17.776C145.458 18.256 144.482 18.496 143.618 18.496C142.498 18.496 141.442 18.016 140.45 17.056C139.458 16.08 138.962 15.008 138.962 13.84C138.962 12.336 139.45 10.64 140.426 8.752C141.418 6.848 142.682 5.208 144.218 3.832C145.77 2.456 147.258 1.768 148.682 1.768ZM155.346 0.951999C155.346 0.328 155.538 0.0159998 155.922 0.0159998C156.226 0.0159998 156.546 0.256 156.882 0.735999C157.234 1.216 157.41 1.68 157.41 2.128C157.41 3.168 157.146 4.944 156.618 7.456C156.106 9.952 155.434 12.448 154.602 14.944C156.202 12.048 157.538 9.96 158.61 8.68C159.698 7.384 160.626 6.736 161.394 6.736C161.81 6.736 162.29 7.096 162.834 7.816C163.394 8.536 163.674 9.256 163.674 9.976C163.674 10.696 163.474 11.776 163.074 13.216C162.082 16.832 161.146 18.64 160.266 18.64C159.914 18.64 159.738 18.4 159.738 17.92C159.738 17.44 159.93 16.632 160.314 15.496C161.162 13.016 161.586 11.344 161.586 10.48C161.586 10.192 161.514 9.952 161.37 9.76C161.226 9.568 161.05 9.472 160.842 9.472C160.634 9.472 160.378 9.584 160.074 9.808C159.77 10.032 159.402 10.424 158.97 10.984C158.426 11.704 157.858 12.512 157.266 13.408C156.69 14.304 156.338 14.848 156.21 15.04C156.098 15.216 155.89 15.544 155.586 16.024C155.298 16.504 155.082 16.864 154.938 17.104C154.794 17.328 154.618 17.576 154.41 17.848C154.042 18.376 153.762 18.64 153.57 18.64C153.378 18.64 153.122 18.464 152.802 18.112C152.482 17.744 152.322 17.44 152.322 17.2C152.322 16.944 152.41 16.472 152.586 15.784C153.386 12.712 153.89 10.608 154.098 9.472C154.93 5.312 155.346 2.472 155.346 0.951999ZM171.765 6.736C172.485 6.736 173.149 7.104 173.757 7.84C174.365 8.56 174.669 9.216 174.669 9.808C174.669 10.384 174.469 10.976 174.069 11.584C174.261 11.824 174.357 12.032 174.357 12.208C174.357 12.656 174.253 13.424 174.045 14.512C173.853 15.6 173.733 16.312 173.685 16.648C173.653 16.984 173.621 17.256 173.589 17.464C173.557 17.656 173.517 17.848 173.469 18.04C173.405 18.44 173.261 18.64 173.037 18.64C172.749 18.64 172.509 18.392 172.317 17.896C172.141 17.384 172.037 16.728 172.005 15.928C170.581 17.736 169.261 18.64 168.045 18.64C167.309 18.64 166.581 18.328 165.861 17.704C165.157 17.064 164.805 16.408 164.805 15.736C164.805 14.776 165.157 13.592 165.861 12.184C166.565 10.76 167.477 9.496 168.597 8.392C169.717 7.288 170.773 6.736 171.765 6.736ZM172.869 10.96C172.869 9.472 172.573 8.728 171.981 8.728C171.357 8.728 170.629 9.176 169.797 10.072C168.965 10.952 168.261 11.952 167.685 13.072C167.109 14.192 166.821 15.08 166.821 15.736C166.821 16.008 166.933 16.232 167.157 16.408C167.381 16.568 167.645 16.648 167.949 16.648C168.701 16.648 169.549 16.144 170.493 15.136C171.437 14.112 172.093 12.872 172.461 11.416C172.509 11.176 172.645 11.032 172.869 10.984V10.96ZM178.983 14.464C180.519 11.856 181.767 9.92 182.727 8.656C183.703 7.376 184.495 6.736 185.103 6.736C185.727 6.736 186.311 7.064 186.855 7.72C187.415 8.376 187.695 9.072 187.695 9.808C187.695 10.96 187.431 12.368 186.903 14.032C185.943 17.104 185.079 18.64 184.311 18.64C183.959 18.64 183.783 18.4 183.783 17.92C183.783 17.584 183.951 16.904 184.287 15.88C184.639 14.84 184.959 13.824 185.247 12.832C185.551 11.824 185.703 11.072 185.703 10.576C185.703 10.064 185.623 9.688 185.463 9.448C185.319 9.208 185.167 9.088 185.007 9.088C184.863 9.088 184.711 9.136 184.551 9.232C184.391 9.328 184.207 9.488 183.999 9.712C183.807 9.936 183.623 10.16 183.447 10.384C183.271 10.592 183.047 10.896 182.775 11.296C182.519 11.696 182.303 12.04 182.127 12.328C181.951 12.6 181.695 13 181.359 13.528C181.023 14.056 180.767 14.456 180.591 14.728C180.415 15 180.183 15.368 179.895 15.832C179.607 16.296 179.375 16.656 179.199 16.912C179.039 17.168 178.855 17.448 178.647 17.752C178.247 18.344 177.927 18.64 177.687 18.64C177.463 18.64 177.199 18.464 176.895 18.112C176.591 17.744 176.439 17.424 176.439 17.152C176.439 17.072 176.495 16.856 176.607 16.504C176.911 15.576 177.247 14.432 177.615 13.072C177.983 11.696 178.183 10.136 178.215 8.392C178.263 7.224 178.431 6.64 178.719 6.64C179.071 6.64 179.423 6.824 179.775 7.192C180.127 7.56 180.303 7.968 180.303 8.416C180.303 8.848 180.167 9.696 179.895 10.96C179.639 12.208 179.335 13.376 178.983 14.464ZM198.932 12.16C198.932 12.8 198.652 13.528 198.092 14.344C197.66 15.32 197.196 16.728 196.7 18.568C196.204 20.392 195.788 21.696 195.452 22.48C194.78 24.112 193.748 24.928 192.356 24.928C191.22 24.928 190.26 24.616 189.476 23.992C188.708 23.384 188.324 22.776 188.324 22.168C188.324 21.912 188.404 21.656 188.564 21.4C188.708 21.144 188.86 21.016 189.02 21.016C189.196 21.016 189.388 21.136 189.596 21.376C189.804 21.616 189.996 21.872 190.172 22.144C190.364 22.432 190.644 22.696 191.012 22.936C191.396 23.176 191.764 23.296 192.116 23.296C192.468 23.296 192.732 23.24 192.908 23.128C193.084 23.032 193.252 22.864 193.412 22.624C193.572 22.4 193.708 22.168 193.82 21.928C193.932 21.704 194.052 21.376 194.18 20.944C194.324 20.528 194.436 20.168 194.516 19.864C194.596 19.56 194.708 19.136 194.852 18.592C194.996 18.032 195.116 17.584 195.212 17.248C193.964 18.176 192.948 18.64 192.164 18.64C191.38 18.64 190.7 18.328 190.124 17.704C189.548 17.064 189.26 16.328 189.26 15.496C189.26 14.648 189.572 13.528 190.196 12.136C190.836 10.744 191.692 9.496 192.764 8.392C193.836 7.288 194.884 6.736 195.908 6.736C196.564 6.736 197.116 6.984 197.564 7.48C198.3 8.296 198.668 9.456 198.668 10.96C198.668 11.152 198.66 11.288 198.644 11.368C198.836 11.64 198.932 11.904 198.932 12.16ZM191.204 15.736C191.204 16.008 191.292 16.232 191.468 16.408C191.644 16.568 191.868 16.648 192.14 16.648C192.94 16.648 193.884 16.176 194.972 15.232C196.06 14.272 196.828 13.16 197.276 11.896C197.212 11.688 197.156 11.368 197.108 10.936C197.06 10.504 197.012 10.16 196.964 9.904C196.916 9.648 196.812 9.392 196.652 9.136C196.492 8.864 196.284 8.728 196.028 8.728C195.404 8.728 194.7 9.176 193.916 10.072C193.132 10.968 192.484 11.968 191.972 13.072C191.46 14.176 191.204 15.064 191.204 15.736ZM210.394 10.72C210.394 11.568 209.93 12.264 209.002 12.808C208.09 13.336 207.05 13.6 205.882 13.6C204.73 13.6 203.682 13.472 202.738 13.216C202.514 13.92 202.402 14.552 202.402 15.112C202.402 15.656 202.57 16.08 202.906 16.384C203.258 16.688 203.826 16.84 204.61 16.84C205.41 16.84 206.226 16.704 207.058 16.432C207.906 16.144 208.37 16 208.45 16C208.866 16 209.074 16.16 209.074 16.48C209.074 16.912 208.586 17.384 207.61 17.896C206.634 18.392 205.682 18.64 204.754 18.64C203.506 18.64 202.49 18.272 201.706 17.536C200.922 16.784 200.53 15.84 200.53 14.704C200.53 13.568 200.834 12.384 201.442 11.152C202.05 9.904 202.834 8.856 203.794 8.008C204.754 7.16 205.706 6.736 206.65 6.736C207.594 6.736 208.45 7.184 209.218 8.08C210.002 8.976 210.394 9.856 210.394 10.72ZM206.77 8.632C206.178 8.632 205.562 8.944 204.922 9.568C204.282 10.176 203.738 10.936 203.29 11.848C203.93 11.992 204.658 12.064 205.474 12.064C206.29 12.064 207.002 11.936 207.61 11.68C208.218 11.408 208.522 11.056 208.522 10.624C208.522 10.192 208.322 9.752 207.922 9.304C207.538 8.856 207.154 8.632 206.77 8.632ZM218.487 6.736C219.031 6.736 219.543 7.04 220.023 7.648C220.503 8.24 220.743 8.76 220.743 9.208C220.743 9.48 220.615 9.616 220.359 9.616C220.183 9.616 219.911 9.48 219.543 9.208C219.175 8.92 218.799 8.776 218.415 8.776C218.031 8.776 217.423 9 216.591 9.448C215.775 9.896 215.367 10.368 215.367 10.864C215.367 11.232 216.103 11.864 217.575 12.76C218.135 13.112 218.639 13.568 219.087 14.128C219.551 14.672 219.783 15.264 219.783 15.904C219.783 16.528 219.343 17.144 218.463 17.752C217.599 18.344 216.583 18.64 215.415 18.64C214.263 18.64 213.239 18.36 212.343 17.8C211.463 17.24 211.023 16.712 211.023 16.216C211.023 16.008 211.071 15.848 211.167 15.736C211.279 15.608 211.415 15.544 211.575 15.544C211.735 15.544 211.959 15.648 212.247 15.856C213.111 16.48 214.007 16.792 214.935 16.792C215.879 16.792 216.559 16.688 216.975 16.48C217.391 16.256 217.599 15.968 217.599 15.616C217.599 15.248 217.367 14.864 216.903 14.464C216.439 14.048 215.927 13.68 215.367 13.36C214.823 13.04 214.319 12.648 213.855 12.184C213.391 11.72 213.159 11.248 213.159 10.768C213.159 9.92 213.823 9.04 215.151 8.128C216.495 7.2 217.607 6.736 218.487 6.736Z" fill="white"/>
</svg>
