<?xml version="1.0" encoding="UTF-8" standalone="no"?>
<!-- Created with Inkscape (http://www.inkscape.org/) -->

<svg
   width="250mm"
   height="250mm"
   viewBox="0 0 250 250"
   version="1.1"
   id="svg5"
   sodipodi:docname="LinkChain.svg"
   xmlns:inkscape="http://www.inkscape.org/namespaces/inkscape"
   xmlns:sodipodi="http://sodipodi.sourceforge.net/DTD/sodipodi-0.dtd"
   xmlns:xlink="http://www.w3.org/1999/xlink"
   xmlns="http://www.w3.org/2000/svg"
   xmlns:svg="http://www.w3.org/2000/svg">
  <sodipodi:namedview
     id="namedview7"
     pagecolor="#ffffff"
     bordercolor="#999999"
     borderopacity="1"
     showgrid="false"
     width="250mm" />
  <defs
     id="defs2">
    <inkscape:path-effect
       effect="knot"
       id="path-effect12379"
       is_visible="true"
       lpeversion="1"
       switcher_size="15"
       interruption_width="36"
       prop_to_stroke_width="false"
       add_stroke_width="inkscape_1.0_and_up"
       both="false"
       inverse_width="false"
       add_other_stroke_width="inkscape_1.0_and_up"
       crossing_points_vector="" />
    <inkscape:path-effect
       effect="knot"
       id="path-effect12255"
       is_visible="true"
       lpeversion="1"
       switcher_size="15"
       interruption_width="36"
       prop_to_stroke_width="false"
       add_stroke_width="inkscape_1.0_and_up"
       both="false"
       inverse_width="false"
       add_other_stroke_width="inkscape_1.0_and_up"
       crossing_points_vector="" />
    <inkscape:path-effect
       effect="knot"
       id="path-effect10907"
       is_visible="true"
       lpeversion="1"
       switcher_size="15"
       interruption_width="36"
       prop_to_stroke_width="false"
       add_stroke_width="inkscape_1.0_and_up"
       both="false"
       inverse_width="false"
       add_other_stroke_width="inkscape_1.0_and_up"
       crossing_points_vector="" />
    <inkscape:path-effect
       effect="knot"
       id="path-effect10883"
       is_visible="true"
       lpeversion="1"
       switcher_size="15"
       interruption_width="36"
       prop_to_stroke_width="false"
       add_stroke_width="inkscape_1.0_and_up"
       both="false"
       inverse_width="false"
       add_other_stroke_width="inkscape_1.0_and_up"
       crossing_points_vector="" />
    <linearGradient
       id="linearGradient4769">
      <stop
         style="stop-color:#ffffff;stop-opacity:1;"
         offset="0"
         id="stop4767" />
    </linearGradient>
    <linearGradient
       xlink:href="#linearGradient4769"
       id="linearGradient4771"
       x1="49.324484"
       y1="141.81321"
       x2="166.95003"
       y2="141.81321"
       gradientUnits="userSpaceOnUse"
       gradientTransform="translate(-21.781334,21.820648)" />
  </defs>
  <g
     id="layer1">
    <path
       id="path1193-2"
       style="color:#000000;fill:url(#linearGradient4771);fill-rule:evenodd;stroke:#000000;stroke-width:5;stroke-linecap:round;stroke-linejoin:round;stroke-miterlimit:4;stroke-dasharray:none;stroke-opacity:1"
       d="m 183.09694,27.509995 c -5.49122,0.142087 -10.7873,1.785341 -15.64453,4.27539 -12.95262,6.640131 -24.16314,18.916556 -36.77734,31.521485 -12.60648,12.59721 -24.90973,23.757629 -31.576157,36.69336 -3.33323,6.46786 -5.15813,13.72754 -3.91602,21.19531 1.24209,7.46777 5.407577,14.6194 12.183577,21.40039 3.93087,3.93376 7.93054,6.9743 12.10157,9.10352 a 7.5,7.5 0 0 0 10.08984,-3.26953 7.5,7.5 0 0 0 -3.27148,-10.08985 c -2.46605,-1.25886 -5.24773,-3.28258 -8.3086,-6.3457 -5.26594,-5.26982 -7.38216,-9.55691 -7.99804,-13.25976 -0.6159,-3.70289 0.12552,-7.34676 2.45312,-11.86329 4.65521,-9.033085 16.04607,-20.162898 28.8457,-32.953122 12.79192,-12.782506 23.95727,-24.139456 33.01563,-28.783203 4.52918,-2.321874 8.18709,-3.061153 11.88476,-2.445313 3.69768,0.61584 7.95898,2.721766 13.1875,7.964844 5.2318,5.246363 7.33471,9.518025 7.94727,13.222656 0.61256,3.704632 -0.12878,7.361215 -2.45117,11.884766 -4.64479,9.047101 -15.99872,20.191713 -28.79102,32.974612 -5.38393,5.37997 -10.41696,10.53452 -15.1582,15.03711 a 7.5,7.5 0 0 0 -0.27344,10.60351 7.5,7.5 0 0 0 10.60352,0.27344 c 5.03899,-4.78536 10.13244,-10.01134 15.42968,-15.30469 12.61382,-12.60454 24.88881,-23.790494 31.53321,-36.73242 3.3222,-6.470963 5.13951,-13.725165 3.90625,-21.183594 -1.23326,-7.458428 -5.37977,-14.603176 -12.125,-21.367187 -6.74573,-6.764506 -13.88485,-10.927658 -21.34375,-12.169922 -1.86473,-0.310566 -3.71647,-0.430175 -5.54688,-0.382812 z m -58.36252,70.251541 a 7.5,7.5 0 0 0 -4.3418,3.755864 7.5,7.5 0 0 0 3.3418,10.0664 c 2.47606,1.24172 5.26799,3.25749 8.33984,6.3379 5.2318,5.24636 7.33665,9.51802 7.94922,13.22265 0.61256,3.70463 -0.13073,7.36122 -2.45313,11.88477 -4.64479,9.0471 -15.99871,20.18975 -28.79101,32.97265 -12.80615,12.79674 -23.928218,24.20618 -32.94922,28.86133 -4.510501,2.32757 -8.141967,3.06657 -11.845703,2.44531 -3.703736,-0.62125 -8.00463,-2.75269 -13.296875,-8.04882 -5.265941,-5.26982 -7.384107,-9.55494 -8,-13.25782 -0.615893,-3.70287 0.127472,-7.34674 2.455078,-11.86328 4.655212,-9.03308 16.044116,-20.1629 28.84375,-32.95312 5.397904,-5.39394 10.453696,-10.55382 15.220703,-15.05469 a 7.5,7.5 0 0 0 0.304688,-10.60352 7.5,7.5 0 0 0 -10.603516,-0.30468 c -5.074824,4.79149 -10.200523,10.03256 -15.523437,15.35156 -12.606479,12.59721 -24.90973,23.75763 -31.576172,36.69336 -3.333221,6.46786 -5.160069,13.72755 -3.917969,21.19531 1.2421,7.46777 5.40954,14.6194 12.185547,21.40039 6.796468,6.80147 13.951476,10.98651 21.425781,12.24024 7.474306,1.25372 14.740657,-0.57329 21.207031,-3.91016 12.932744,-6.67374 24.073864,-18.98938 36.673824,-31.58008 12.61382,-12.60454 24.8888,-23.79049 31.53321,-36.73242 3.3222,-6.47096 5.1395,-13.72517 3.90625,-21.18359 -1.23326,-7.45843 -5.38172,-14.60318 -12.12696,-21.36719 -3.96323,-3.97427 -8.00699,-7.03333 -12.23633,-9.154304 a 7.5,7.5 0 0 0 -5.7246,-0.41406 z" />
  </g>
</svg>
